<mxfile host="app.diagrams.net" modified="2023-08-15T06:38:47.778Z" agent="Mozilla/5.0 (Macintosh; Intel Mac OS X 10_15_7) AppleWebKit/537.36 (KHTML, like Gecko) Chrome/115.0.0.0 Safari/537.36" etag="t4RVYYhTUZanYuc3avzH" version="21.6.6" type="github">
  <diagram name="第 1 页" id="W2xa-_hKXDuzA-UX46-l">
    <mxGraphModel dx="2628" dy="1732" grid="0" gridSize="10" guides="1" tooltips="1" connect="1" arrows="1" fold="1" page="0" pageScale="1" pageWidth="1169" pageHeight="827" math="0" shadow="0">
      <root>
        <mxCell id="0" />
        <mxCell id="1" parent="0" />
        <mxCell id="Hn5DWS8g3T5PucIkjDgh-8" style="edgeStyle=orthogonalEdgeStyle;rounded=0;orthogonalLoop=1;jettySize=auto;html=1;entryX=0;entryY=0.5;entryDx=0;entryDy=0;sketch=1;curveFitting=1;jiggle=2;endSize=16;targetPerimeterSpacing=3;sourcePerimeterSpacing=2;startSize=6;" edge="1" parent="1" source="Hn5DWS8g3T5PucIkjDgh-1" target="Hn5DWS8g3T5PucIkjDgh-2">
          <mxGeometry relative="1" as="geometry" />
        </mxCell>
        <mxCell id="Hn5DWS8g3T5PucIkjDgh-40" style="edgeStyle=orthogonalEdgeStyle;rounded=0;orthogonalLoop=1;jettySize=auto;html=1;entryX=0;entryY=0.5;entryDx=0;entryDy=0;sketch=1;curveFitting=1;jiggle=2;endSize=16;targetPerimeterSpacing=5;sourcePerimeterSpacing=2;" edge="1" parent="1" source="Hn5DWS8g3T5PucIkjDgh-1" target="Hn5DWS8g3T5PucIkjDgh-39">
          <mxGeometry relative="1" as="geometry">
            <Array as="points">
              <mxPoint x="123" y="84" />
            </Array>
          </mxGeometry>
        </mxCell>
        <mxCell id="Hn5DWS8g3T5PucIkjDgh-1" value="&lt;font style=&quot;font-size: 21px;&quot; face=&quot;Comic Sans MS&quot;&gt;客户端&lt;/font&gt;" style="rounded=0;whiteSpace=wrap;html=1;sketch=1;curveFitting=1;jiggle=2;strokeWidth=1;perimeterSpacing=1;fillColor=#e3c800;fontColor=#000000;strokeColor=#B09500;" vertex="1" parent="1">
          <mxGeometry x="68" y="288" width="109" height="67" as="geometry" />
        </mxCell>
        <mxCell id="Hn5DWS8g3T5PucIkjDgh-9" style="edgeStyle=orthogonalEdgeStyle;rounded=0;orthogonalLoop=1;jettySize=auto;html=1;entryX=0;entryY=0.5;entryDx=0;entryDy=0;endSize=16;targetPerimeterSpacing=3;sketch=1;curveFitting=1;jiggle=2;sourcePerimeterSpacing=2;" edge="1" parent="1" source="Hn5DWS8g3T5PucIkjDgh-2" target="Hn5DWS8g3T5PucIkjDgh-3">
          <mxGeometry relative="1" as="geometry" />
        </mxCell>
        <mxCell id="Hn5DWS8g3T5PucIkjDgh-17" style="edgeStyle=orthogonalEdgeStyle;rounded=0;orthogonalLoop=1;jettySize=auto;html=1;entryX=0.5;entryY=0;entryDx=0;entryDy=0;sketch=1;curveFitting=1;jiggle=2;targetPerimeterSpacing=5;endSize=16;sourcePerimeterSpacing=2;" edge="1" parent="1" source="Hn5DWS8g3T5PucIkjDgh-2" target="Hn5DWS8g3T5PucIkjDgh-15">
          <mxGeometry relative="1" as="geometry" />
        </mxCell>
        <mxCell id="Hn5DWS8g3T5PucIkjDgh-19" style="edgeStyle=orthogonalEdgeStyle;rounded=0;orthogonalLoop=1;jettySize=auto;html=1;sketch=1;curveFitting=1;jiggle=2;endSize=16;targetPerimeterSpacing=0;sourcePerimeterSpacing=2;startSize=6;" edge="1" parent="1" source="Hn5DWS8g3T5PucIkjDgh-2" target="Hn5DWS8g3T5PucIkjDgh-16">
          <mxGeometry relative="1" as="geometry" />
        </mxCell>
        <mxCell id="Hn5DWS8g3T5PucIkjDgh-2" value="&lt;font style=&quot;font-size: 20px;&quot; face=&quot;Comic Sans MS&quot;&gt;&lt;span style=&quot;&quot;&gt;业务网关&lt;br&gt;edith2.0&lt;br&gt;&lt;/span&gt;&lt;/font&gt;" style="rounded=0;whiteSpace=wrap;html=1;sketch=1;curveFitting=1;jiggle=2;strokeWidth=1;perimeterSpacing=1;fillColor=#e3c800;fontColor=#000000;strokeColor=#B09500;" vertex="1" parent="1">
          <mxGeometry x="290" y="289" width="123" height="66" as="geometry" />
        </mxCell>
        <mxCell id="Hn5DWS8g3T5PucIkjDgh-11" style="edgeStyle=orthogonalEdgeStyle;rounded=0;orthogonalLoop=1;jettySize=auto;html=1;entryX=0;entryY=0.5;entryDx=0;entryDy=0;endSize=16;targetPerimeterSpacing=5;sourcePerimeterSpacing=2;sketch=1;curveFitting=1;jiggle=2;" edge="1" parent="1" source="Hn5DWS8g3T5PucIkjDgh-3" target="Hn5DWS8g3T5PucIkjDgh-4">
          <mxGeometry relative="1" as="geometry" />
        </mxCell>
        <mxCell id="Hn5DWS8g3T5PucIkjDgh-3" value="&lt;font style=&quot;font-size: 20px;&quot; face=&quot;Comic Sans MS&quot;&gt;&lt;span style=&quot;&quot;&gt;各种业务&lt;br&gt;服务&lt;br&gt;&lt;/span&gt;&lt;/font&gt;" style="rounded=0;whiteSpace=wrap;html=1;sketch=1;curveFitting=1;jiggle=2;strokeWidth=1;perimeterSpacing=1;fillColor=#e3c800;fontColor=#000000;strokeColor=#B09500;" vertex="1" parent="1">
          <mxGeometry x="523" y="289" width="123" height="66" as="geometry" />
        </mxCell>
        <mxCell id="Hn5DWS8g3T5PucIkjDgh-12" style="edgeStyle=orthogonalEdgeStyle;rounded=0;orthogonalLoop=1;jettySize=auto;html=1;entryX=0;entryY=0.5;entryDx=0;entryDy=0;sketch=1;curveFitting=1;jiggle=2;endSize=16;targetPerimeterSpacing=5;sourcePerimeterSpacing=2;" edge="1" parent="1" source="Hn5DWS8g3T5PucIkjDgh-4" target="Hn5DWS8g3T5PucIkjDgh-5">
          <mxGeometry relative="1" as="geometry" />
        </mxCell>
        <mxCell id="Hn5DWS8g3T5PucIkjDgh-4" value="&lt;font style=&quot;font-size: 20px;&quot; face=&quot;Comic Sans MS&quot;&gt;&lt;span style=&quot;&quot;&gt;接入服务&lt;br&gt;ps&lt;br&gt;&lt;/span&gt;&lt;/font&gt;" style="rounded=0;whiteSpace=wrap;html=1;sketch=1;curveFitting=1;jiggle=2;strokeWidth=1;perimeterSpacing=1;fillColor=#e3c800;fontColor=#000000;strokeColor=#B09500;" vertex="1" parent="1">
          <mxGeometry x="766" y="289" width="123" height="66" as="geometry" />
        </mxCell>
        <mxCell id="Hn5DWS8g3T5PucIkjDgh-13" style="edgeStyle=orthogonalEdgeStyle;rounded=0;orthogonalLoop=1;jettySize=auto;html=1;entryX=0;entryY=0.5;entryDx=0;entryDy=0;sketch=1;curveFitting=1;jiggle=2;targetPerimeterSpacing=5;endSize=16;sourcePerimeterSpacing=2;" edge="1" parent="1" source="Hn5DWS8g3T5PucIkjDgh-5" target="Hn5DWS8g3T5PucIkjDgh-7">
          <mxGeometry relative="1" as="geometry" />
        </mxCell>
        <mxCell id="Hn5DWS8g3T5PucIkjDgh-14" style="edgeStyle=orthogonalEdgeStyle;rounded=0;orthogonalLoop=1;jettySize=auto;html=1;entryX=0.5;entryY=1;entryDx=0;entryDy=0;targetPerimeterSpacing=2;endSize=16;sourcePerimeterSpacing=2;sketch=1;curveFitting=1;jiggle=2;" edge="1" parent="1" source="Hn5DWS8g3T5PucIkjDgh-5" target="Hn5DWS8g3T5PucIkjDgh-6">
          <mxGeometry relative="1" as="geometry" />
        </mxCell>
        <mxCell id="Hn5DWS8g3T5PucIkjDgh-5" value="&lt;font style=&quot;font-size: 20px;&quot; face=&quot;Comic Sans MS&quot;&gt;&lt;span style=&quot;&quot;&gt;规则引擎&lt;br&gt;hammurabi&lt;br&gt;&lt;/span&gt;&lt;/font&gt;" style="rounded=0;whiteSpace=wrap;html=1;sketch=1;curveFitting=1;jiggle=2;strokeWidth=1;perimeterSpacing=1;fillColor=#e3c800;fontColor=#000000;strokeColor=#B09500;" vertex="1" parent="1">
          <mxGeometry x="1001" y="289" width="123" height="66" as="geometry" />
        </mxCell>
        <mxCell id="Hn5DWS8g3T5PucIkjDgh-6" value="&lt;font style=&quot;font-size: 20px;&quot; face=&quot;Comic Sans MS&quot;&gt;&lt;span style=&quot;&quot;&gt;处罚中心&lt;br&gt;justice&lt;br&gt;&lt;/span&gt;&lt;/font&gt;" style="rounded=0;whiteSpace=wrap;html=1;sketch=1;curveFitting=1;jiggle=2;strokeWidth=1;perimeterSpacing=1;fillColor=#e3c800;fontColor=#000000;strokeColor=#B09500;" vertex="1" parent="1">
          <mxGeometry x="1001" y="146" width="123" height="66" as="geometry" />
        </mxCell>
        <mxCell id="Hn5DWS8g3T5PucIkjDgh-45" style="edgeStyle=orthogonalEdgeStyle;rounded=0;orthogonalLoop=1;jettySize=auto;html=1;endArrow=none;endFill=0;sketch=1;curveFitting=1;jiggle=2;targetPerimeterSpacing=2;endSize=12;sourcePerimeterSpacing=2;" edge="1" parent="1" source="Hn5DWS8g3T5PucIkjDgh-7">
          <mxGeometry relative="1" as="geometry">
            <mxPoint x="1402.75" y="321.9999999999999" as="targetPoint" />
          </mxGeometry>
        </mxCell>
        <mxCell id="Hn5DWS8g3T5PucIkjDgh-7" value="&lt;font style=&quot;font-size: 20px;&quot; face=&quot;Comic Sans MS&quot;&gt;&lt;span style=&quot;&quot;&gt;特征补全&lt;br&gt;hulk&lt;br&gt;&lt;/span&gt;&lt;/font&gt;" style="rounded=0;whiteSpace=wrap;html=1;sketch=1;curveFitting=1;jiggle=2;strokeWidth=1;perimeterSpacing=1;fillColor=#e3c800;fontColor=#000000;strokeColor=#B09500;" vertex="1" parent="1">
          <mxGeometry x="1244" y="289" width="123" height="66" as="geometry" />
        </mxCell>
        <mxCell id="Hn5DWS8g3T5PucIkjDgh-15" value="&lt;font style=&quot;font-size: 20px;&quot; face=&quot;Comic Sans MS&quot;&gt;&lt;span style=&quot;&quot;&gt;验签&lt;br&gt;terrigen&lt;br&gt;&lt;/span&gt;&lt;/font&gt;" style="rounded=0;whiteSpace=wrap;html=1;sketch=1;curveFitting=1;jiggle=2;strokeWidth=1;perimeterSpacing=1;fillColor=#e3c800;fontColor=#000000;strokeColor=#B09500;" vertex="1" parent="1">
          <mxGeometry x="217" y="429" width="123" height="66" as="geometry" />
        </mxCell>
        <mxCell id="Hn5DWS8g3T5PucIkjDgh-20" style="edgeStyle=orthogonalEdgeStyle;rounded=0;orthogonalLoop=1;jettySize=auto;html=1;entryX=0.5;entryY=1;entryDx=0;entryDy=0;sketch=1;curveFitting=1;jiggle=2;targetPerimeterSpacing=5;endSize=16;sourcePerimeterSpacing=2;" edge="1" parent="1" source="Hn5DWS8g3T5PucIkjDgh-16" target="Hn5DWS8g3T5PucIkjDgh-4">
          <mxGeometry relative="1" as="geometry" />
        </mxCell>
        <mxCell id="Hn5DWS8g3T5PucIkjDgh-25" style="edgeStyle=orthogonalEdgeStyle;rounded=0;orthogonalLoop=1;jettySize=auto;html=1;entryX=0.5;entryY=1;entryDx=0;entryDy=0;entryPerimeter=0;sketch=1;curveFitting=1;jiggle=2;endSize=16;targetPerimeterSpacing=5;sourcePerimeterSpacing=2;" edge="1" parent="1" source="Hn5DWS8g3T5PucIkjDgh-16" target="Hn5DWS8g3T5PucIkjDgh-21">
          <mxGeometry relative="1" as="geometry" />
        </mxCell>
        <mxCell id="Hn5DWS8g3T5PucIkjDgh-16" value="&lt;font style=&quot;font-size: 20px;&quot; face=&quot;Comic Sans MS&quot;&gt;&lt;span style=&quot;&quot;&gt;反爬&lt;br&gt;shield&lt;br&gt;&lt;/span&gt;&lt;/font&gt;" style="rounded=0;whiteSpace=wrap;html=1;sketch=1;curveFitting=1;jiggle=2;strokeWidth=1;perimeterSpacing=1;fillColor=#e3c800;fontColor=#000000;strokeColor=#B09500;" vertex="1" parent="1">
          <mxGeometry x="379" y="429" width="123" height="66" as="geometry" />
        </mxCell>
        <mxCell id="Hn5DWS8g3T5PucIkjDgh-23" value="" style="group" vertex="1" connectable="0" parent="1">
          <mxGeometry x="307" y="568" width="80" height="78" as="geometry" />
        </mxCell>
        <mxCell id="Hn5DWS8g3T5PucIkjDgh-21" value="" style="shape=cylinder3;whiteSpace=wrap;html=1;boundedLbl=1;backgroundOutline=1;size=12.199999999999932;rotation=90;sketch=1;curveFitting=1;jiggle=2;fillColor=#e3c800;fontColor=#000000;strokeColor=#B09500;" vertex="1" parent="Hn5DWS8g3T5PucIkjDgh-23">
          <mxGeometry x="-2" y="-22" width="64" height="100" as="geometry" />
        </mxCell>
        <mxCell id="Hn5DWS8g3T5PucIkjDgh-22" value="&lt;font style=&quot;font-size: 21px;&quot; face=&quot;Comic Sans MS&quot;&gt;kafka&lt;/font&gt;" style="text;html=1;strokeColor=none;fillColor=none;align=center;verticalAlign=middle;whiteSpace=wrap;rounded=0;" vertex="1" parent="Hn5DWS8g3T5PucIkjDgh-23">
          <mxGeometry x="-8" y="15" width="60" height="30" as="geometry" />
        </mxCell>
        <mxCell id="Hn5DWS8g3T5PucIkjDgh-30" style="edgeStyle=orthogonalEdgeStyle;rounded=0;orthogonalLoop=1;jettySize=auto;html=1;entryX=0;entryY=0.5;entryDx=0;entryDy=0;sketch=1;curveFitting=1;jiggle=2;endSize=16;targetPerimeterSpacing=5;sourcePerimeterSpacing=2;" edge="1" parent="1" source="Hn5DWS8g3T5PucIkjDgh-26" target="Hn5DWS8g3T5PucIkjDgh-27">
          <mxGeometry relative="1" as="geometry" />
        </mxCell>
        <mxCell id="Hn5DWS8g3T5PucIkjDgh-26" value="&lt;font style=&quot;font-size: 20px;&quot; face=&quot;Comic Sans MS&quot;&gt;&lt;span style=&quot;&quot;&gt;异步接入服务&lt;br&gt;phoebe-ps&lt;br&gt;&lt;/span&gt;&lt;/font&gt;" style="rounded=0;whiteSpace=wrap;html=1;sketch=1;curveFitting=1;jiggle=2;strokeWidth=1;perimeterSpacing=1;fillColor=#e3c800;fontColor=#000000;strokeColor=#B09500;" vertex="1" parent="1">
          <mxGeometry x="727" y="562" width="178" height="70" as="geometry" />
        </mxCell>
        <mxCell id="Hn5DWS8g3T5PucIkjDgh-29" style="edgeStyle=orthogonalEdgeStyle;rounded=0;orthogonalLoop=1;jettySize=auto;html=1;endArrow=none;endFill=0;sketch=1;curveFitting=1;jiggle=2;endSize=10;targetPerimeterSpacing=5;sourcePerimeterSpacing=2;" edge="1" parent="1" source="Hn5DWS8g3T5PucIkjDgh-27">
          <mxGeometry relative="1" as="geometry">
            <mxPoint x="1210.04347826087" y="322.217391304348" as="targetPoint" />
          </mxGeometry>
        </mxCell>
        <mxCell id="Hn5DWS8g3T5PucIkjDgh-27" value="&lt;font style=&quot;font-size: 20px;&quot; face=&quot;Comic Sans MS&quot;&gt;&lt;span style=&quot;&quot;&gt;异步规则引擎&lt;br&gt;hammurabi-async&lt;br&gt;&lt;/span&gt;&lt;/font&gt;" style="rounded=0;whiteSpace=wrap;html=1;sketch=1;curveFitting=1;jiggle=2;strokeWidth=1;perimeterSpacing=1;fillColor=#e3c800;fontColor=#000000;strokeColor=#B09500;" vertex="1" parent="1">
          <mxGeometry x="1001" y="562" width="178" height="70" as="geometry" />
        </mxCell>
        <mxCell id="Hn5DWS8g3T5PucIkjDgh-31" style="edgeStyle=orthogonalEdgeStyle;rounded=0;orthogonalLoop=1;jettySize=auto;html=1;entryX=0;entryY=0.5;entryDx=0;entryDy=0;sketch=1;curveFitting=1;jiggle=2;endSize=16;targetPerimeterSpacing=5;sourcePerimeterSpacing=2;" edge="1" parent="1" source="Hn5DWS8g3T5PucIkjDgh-21" target="Hn5DWS8g3T5PucIkjDgh-26">
          <mxGeometry relative="1" as="geometry" />
        </mxCell>
        <mxCell id="Hn5DWS8g3T5PucIkjDgh-32" value="&lt;font face=&quot;Comic Sans MS&quot; style=&quot;font-size: 18px;&quot;&gt;风控异步链路&lt;/font&gt;" style="edgeLabel;html=1;align=center;verticalAlign=middle;resizable=0;points=[];" vertex="1" connectable="0" parent="Hn5DWS8g3T5PucIkjDgh-31">
          <mxGeometry x="-0.3434" relative="1" as="geometry">
            <mxPoint as="offset" />
          </mxGeometry>
        </mxCell>
        <mxCell id="Hn5DWS8g3T5PucIkjDgh-33" value="&lt;font style=&quot;font-size: 17px;&quot; face=&quot;Comic Sans MS&quot;&gt;指纹&lt;br&gt;redkv&lt;br&gt;&lt;/font&gt;" style="shape=cylinder3;whiteSpace=wrap;html=1;boundedLbl=1;backgroundOutline=1;size=15;fillColor=#e3c800;fontColor=#000000;strokeColor=#B09500;sketch=1;curveFitting=1;jiggle=2;" vertex="1" parent="1">
          <mxGeometry x="1449" y="42" width="91" height="83" as="geometry" />
        </mxCell>
        <mxCell id="Hn5DWS8g3T5PucIkjDgh-34" value="&lt;font style=&quot;font-size: 17px;&quot; face=&quot;Comic Sans MS&quot;&gt;名单&lt;br&gt;redkv&lt;br&gt;&lt;/font&gt;" style="shape=cylinder3;whiteSpace=wrap;html=1;boundedLbl=1;backgroundOutline=1;size=15;fillColor=#e3c800;fontColor=#000000;strokeColor=#B09500;sketch=1;curveFitting=1;jiggle=2;" vertex="1" parent="1">
          <mxGeometry x="1634" y="178" width="91" height="83" as="geometry" />
        </mxCell>
        <mxCell id="Hn5DWS8g3T5PucIkjDgh-35" value="&lt;font style=&quot;font-size: 17px;&quot; face=&quot;Comic Sans MS&quot;&gt;累计&lt;br&gt;redkv&lt;br&gt;&lt;/font&gt;" style="shape=cylinder3;whiteSpace=wrap;html=1;boundedLbl=1;backgroundOutline=1;size=15;fillColor=#e3c800;fontColor=#000000;strokeColor=#B09500;sketch=1;curveFitting=1;jiggle=2;" vertex="1" parent="1">
          <mxGeometry x="1637" y="322" width="91" height="83" as="geometry" />
        </mxCell>
        <mxCell id="Hn5DWS8g3T5PucIkjDgh-48" style="edgeStyle=orthogonalEdgeStyle;rounded=0;orthogonalLoop=1;jettySize=auto;html=1;endSize=16;sketch=1;curveFitting=1;jiggle=2;targetPerimeterSpacing=5;sourcePerimeterSpacing=2;" edge="1" parent="1" source="Hn5DWS8g3T5PucIkjDgh-36" target="Hn5DWS8g3T5PucIkjDgh-34">
          <mxGeometry relative="1" as="geometry" />
        </mxCell>
        <mxCell id="Hn5DWS8g3T5PucIkjDgh-36" value="&lt;font style=&quot;font-size: 20px;&quot; face=&quot;Comic Sans MS&quot;&gt;&lt;span style=&quot;&quot;&gt;特征补全&lt;br&gt;hulk&lt;br&gt;&lt;/span&gt;&lt;/font&gt;" style="rounded=0;whiteSpace=wrap;html=1;sketch=1;curveFitting=1;jiggle=2;strokeWidth=1;perimeterSpacing=1;fillColor=#e3c800;fontColor=#000000;strokeColor=#B09500;" vertex="1" parent="1">
          <mxGeometry x="1439" y="187" width="123" height="66" as="geometry" />
        </mxCell>
        <mxCell id="Hn5DWS8g3T5PucIkjDgh-49" style="edgeStyle=orthogonalEdgeStyle;rounded=0;orthogonalLoop=1;jettySize=auto;html=1;entryX=0;entryY=0.5;entryDx=0;entryDy=0;entryPerimeter=0;sketch=1;curveFitting=1;jiggle=2;endSize=16;targetPerimeterSpacing=5;sourcePerimeterSpacing=2;" edge="1" parent="1" source="Hn5DWS8g3T5PucIkjDgh-37" target="Hn5DWS8g3T5PucIkjDgh-35">
          <mxGeometry relative="1" as="geometry" />
        </mxCell>
        <mxCell id="Hn5DWS8g3T5PucIkjDgh-37" value="&lt;font style=&quot;font-size: 20px;&quot; face=&quot;Comic Sans MS&quot;&gt;&lt;span style=&quot;&quot;&gt;特征补全&lt;br&gt;hulk&lt;br&gt;&lt;/span&gt;&lt;/font&gt;" style="rounded=0;whiteSpace=wrap;html=1;sketch=1;curveFitting=1;jiggle=2;strokeWidth=1;perimeterSpacing=1;fillColor=#e3c800;fontColor=#000000;strokeColor=#B09500;" vertex="1" parent="1">
          <mxGeometry x="1442" y="331" width="123" height="66" as="geometry" />
        </mxCell>
        <mxCell id="Hn5DWS8g3T5PucIkjDgh-38" value="&lt;font style=&quot;font-size: 20px;&quot; face=&quot;Comic Sans MS&quot;&gt;&lt;span style=&quot;&quot;&gt;其他数据源&lt;br&gt;&lt;/span&gt;&lt;/font&gt;" style="rounded=0;whiteSpace=wrap;html=1;sketch=1;curveFitting=1;jiggle=2;strokeWidth=1;perimeterSpacing=1;fillColor=#e3c800;fontColor=#000000;strokeColor=#B09500;" vertex="1" parent="1">
          <mxGeometry x="1442" y="456" width="123" height="66" as="geometry" />
        </mxCell>
        <mxCell id="Hn5DWS8g3T5PucIkjDgh-41" style="edgeStyle=orthogonalEdgeStyle;rounded=0;orthogonalLoop=1;jettySize=auto;html=1;entryX=0;entryY=0.5;entryDx=0;entryDy=0;entryPerimeter=0;sketch=1;curveFitting=1;jiggle=2;targetPerimeterSpacing=5;endSize=16;sourcePerimeterSpacing=2;" edge="1" parent="1" source="Hn5DWS8g3T5PucIkjDgh-39" target="Hn5DWS8g3T5PucIkjDgh-33">
          <mxGeometry relative="1" as="geometry" />
        </mxCell>
        <mxCell id="Hn5DWS8g3T5PucIkjDgh-39" value="&lt;font style=&quot;font-size: 20px;&quot; face=&quot;Comic Sans MS&quot;&gt;&lt;span style=&quot;&quot;&gt;指纹&lt;br&gt;accio&lt;br&gt;&lt;/span&gt;&lt;/font&gt;" style="rounded=0;whiteSpace=wrap;html=1;sketch=1;curveFitting=1;jiggle=2;strokeWidth=1;perimeterSpacing=1;fillColor=#e3c800;fontColor=#000000;strokeColor=#B09500;" vertex="1" parent="1">
          <mxGeometry x="334" y="51" width="123" height="66" as="geometry" />
        </mxCell>
        <mxCell id="Hn5DWS8g3T5PucIkjDgh-43" value="" style="endArrow=none;html=1;rounded=0;edgeStyle=orthogonalEdgeStyle;exitX=0;exitY=0.5;exitDx=0;exitDy=0;endFill=0;startArrow=classic;startFill=1;targetPerimeterSpacing=5;endSize=4;sketch=1;curveFitting=1;jiggle=2;startSize=16;sourcePerimeterSpacing=5;" edge="1" parent="1" source="Hn5DWS8g3T5PucIkjDgh-38">
          <mxGeometry width="50" height="50" relative="1" as="geometry">
            <mxPoint x="1402" y="496" as="sourcePoint" />
            <mxPoint x="1402" y="83" as="targetPoint" />
          </mxGeometry>
        </mxCell>
        <mxCell id="Hn5DWS8g3T5PucIkjDgh-46" value="" style="endArrow=classic;html=1;rounded=0;sketch=1;curveFitting=1;jiggle=2;endSize=16;targetPerimeterSpacing=5;sourcePerimeterSpacing=2;" edge="1" parent="1">
          <mxGeometry width="50" height="50" relative="1" as="geometry">
            <mxPoint x="1402" y="363" as="sourcePoint" />
            <mxPoint x="1440" y="363" as="targetPoint" />
          </mxGeometry>
        </mxCell>
        <mxCell id="Hn5DWS8g3T5PucIkjDgh-47" value="" style="endArrow=classic;html=1;rounded=0;entryX=0;entryY=0.5;entryDx=0;entryDy=0;sketch=1;curveFitting=1;jiggle=2;endSize=16;targetPerimeterSpacing=5;sourcePerimeterSpacing=2;" edge="1" parent="1" target="Hn5DWS8g3T5PucIkjDgh-36">
          <mxGeometry width="50" height="50" relative="1" as="geometry">
            <mxPoint x="1403" y="220" as="sourcePoint" />
            <mxPoint x="1436" y="218" as="targetPoint" />
          </mxGeometry>
        </mxCell>
      </root>
    </mxGraphModel>
  </diagram>
</mxfile>
